<svg id="svg" version="1.1" width="400" height="37.68163265306122" viewBox="0 0 400 37.68163265306122" xmlns="http://www.w3.org/2000/svg" xmlns:xlink="http://www.w3.org/1999/xlink" ><g id="svgg"><path id="path0" d="M7.333 0.244 C 5.591 0.758,5.269 0.876,4.691 1.205 C 4.357 1.396,3.932 1.634,3.748 1.734 C 2.550 2.385,1.088 4.630,0.429 6.833 C 0.026 8.181,-0.194 27.250,0.169 29.417 C 0.827 33.348,3.160 36.308,6.187 37.050 C 8.708 37.669,8.322 37.655,23.292 37.661 L 37.833 37.667 37.833 36.333 L 37.833 35.000 25.208 34.989 C 12.476 34.978,11.088 34.923,8.841 34.342 C 8.001 34.124,6.817 33.521,6.617 33.208 C 6.543 33.094,6.400 33.000,6.299 33.000 C 6.198 33.000,5.845 32.711,5.516 32.357 C 2.942 29.595,2.672 28.295,2.673 18.667 C 2.673 11.910,2.677 11.850,3.281 8.790 C 3.331 8.536,3.438 8.288,3.519 8.238 C 3.600 8.188,3.667 8.019,3.667 7.863 C 3.667 7.288,5.107 5.443,6.264 4.535 C 8.611 2.694,10.270 2.525,26.208 2.511 L 37.833 2.500 37.833 1.250 L 37.833 0.000 22.958 0.011 C 11.102 0.020,7.931 0.067,7.333 0.244 M61.312 0.458 C 61.496 0.710,61.908 1.205,62.228 1.558 C 62.547 1.911,62.983 2.427,63.196 2.705 C 63.607 3.241,63.938 3.638,65.667 5.666 C 66.262 6.365,67.062 7.308,67.444 7.760 C 67.825 8.213,68.275 8.742,68.444 8.936 C 68.612 9.130,68.938 9.536,69.167 9.838 C 69.396 10.139,69.658 10.468,69.750 10.568 C 69.842 10.668,70.479 11.425,71.167 12.250 C 71.854 13.075,72.492 13.830,72.583 13.929 C 72.675 14.027,73.050 14.471,73.417 14.915 C 73.783 15.359,74.236 15.891,74.422 16.096 C 74.608 16.302,74.946 16.712,75.172 17.007 C 75.706 17.704,76.100 18.189,76.387 18.500 C 77.118 19.293,77.167 19.956,77.167 29.030 L 77.167 37.667 78.500 37.667 L 79.833 37.667 79.833 29.067 C 79.833 20.074,79.925 18.813,80.598 18.555 C 80.728 18.505,80.833 18.387,80.833 18.292 C 80.833 18.198,80.934 18.037,81.056 17.935 C 81.179 17.833,81.758 17.150,82.344 16.417 C 82.930 15.683,83.486 15.002,83.580 14.903 C 83.673 14.803,84.087 14.320,84.500 13.829 C 84.912 13.338,85.513 12.628,85.833 12.250 C 86.154 11.872,86.659 11.263,86.954 10.897 C 87.862 9.771,88.566 8.943,88.958 8.538 C 89.165 8.325,89.333 8.117,89.333 8.074 C 89.333 8.032,89.513 7.792,89.732 7.540 C 90.214 6.987,92.425 4.382,92.808 3.915 C 94.736 1.567,95.437 0.741,95.544 0.694 C 96.497 0.272,95.940 0.000,94.131 0.005 L 92.250 0.010 91.667 0.797 C 91.346 1.229,90.952 1.681,90.792 1.801 C 90.631 1.921,90.500 2.086,90.500 2.168 C 90.500 2.249,90.305 2.526,90.066 2.783 C 89.827 3.040,89.396 3.541,89.107 3.896 C 88.819 4.251,88.275 4.888,87.899 5.312 C 87.523 5.736,86.702 6.721,86.075 7.500 C 85.449 8.279,84.838 8.977,84.718 9.050 C 84.598 9.123,84.500 9.292,84.500 9.425 C 84.500 9.558,84.438 9.667,84.363 9.667 C 84.288 9.667,83.821 10.173,83.326 10.792 C 78.874 16.355,78.237 16.340,73.474 10.569 C 72.498 9.385,71.560 8.255,71.391 8.057 C 71.222 7.859,70.847 7.409,70.558 7.057 C 70.269 6.705,69.868 6.229,69.667 6.000 C 69.465 5.771,69.064 5.292,68.775 4.936 C 68.486 4.581,68.081 4.115,67.875 3.902 C 67.669 3.689,67.500 3.476,67.500 3.427 C 67.500 3.379,67.256 3.077,66.958 2.757 C 66.660 2.437,66.229 1.937,66.000 1.645 C 65.771 1.354,65.369 0.864,65.108 0.558 L 64.632 0.000 62.805 0.000 L 60.977 0.000 61.312 0.458 M119.167 1.235 L 119.167 2.480 132.458 2.550 C 146.541 2.624,146.813 2.639,149.333 3.447 C 150.469 3.811,152.667 5.246,152.667 5.623 C 152.667 5.716,152.785 5.890,152.929 6.010 C 154.432 7.258,154.589 12.696,153.159 14.000 C 153.108 14.046,152.900 14.323,152.696 14.615 C 152.492 14.908,151.832 15.492,151.229 15.913 C 149.114 17.392,148.074 17.476,131.792 17.489 L 119.167 17.500 119.167 18.823 L 119.167 20.145 133.458 20.214 L 147.750 20.284 149.000 20.690 C 156.119 23.002,156.003 32.450,148.833 34.296 C 146.436 34.913,144.709 34.984,131.792 34.992 L 119.167 35.000 119.167 36.338 L 119.167 37.677 134.208 37.622 C 150.363 37.563,150.240 37.570,151.940 36.700 C 152.111 36.613,152.587 36.373,153.000 36.166 C 154.518 35.404,155.948 33.573,156.580 31.583 C 156.935 30.463,157.016 24.655,156.684 24.054 C 156.592 23.887,156.387 23.460,156.230 23.106 C 155.962 22.504,154.845 21.503,154.433 21.497 C 154.193 21.494,153.305 20.674,153.049 20.220 C 152.458 19.167,152.766 16.983,153.540 16.737 C 153.701 16.686,153.833 16.578,153.833 16.498 C 153.833 16.417,154.202 16.166,154.653 15.939 C 155.453 15.537,156.166 14.958,156.168 14.708 C 156.168 14.640,156.289 14.358,156.435 14.083 C 157.028 12.972,157.083 7.652,156.519 5.898 C 155.613 3.080,154.166 1.701,150.750 0.401 C 149.956 0.098,149.190 0.081,134.542 0.037 L 119.167 -0.010 119.167 1.235 M180.333 1.250 L 180.333 2.500 199.167 2.500 L 218.000 2.500 218.000 1.250 L 218.000 0.000 199.167 0.000 L 180.333 0.000 180.333 1.250 M241.333 1.234 L 241.333 2.479 254.625 2.548 C 269.936 2.629,271.448 2.775,273.430 4.363 C 274.164 4.951,275.161 5.933,275.164 6.070 C 275.165 6.155,275.296 6.366,275.454 6.541 C 276.178 7.342,276.557 10.433,276.101 11.827 C 275.954 12.277,275.833 12.734,275.833 12.842 C 275.833 13.919,272.201 16.830,270.850 16.835 C 270.612 16.836,270.042 16.961,269.583 17.113 C 268.842 17.359,267.233 17.397,255.042 17.460 L 241.333 17.531 241.333 18.835 L 241.333 20.139 246.792 20.195 C 252.608 20.254,253.065 20.323,253.624 21.231 C 253.693 21.343,254.275 21.853,254.917 22.364 C 255.558 22.875,256.242 23.433,256.435 23.605 C 256.629 23.776,257.220 24.292,257.750 24.750 C 258.279 25.208,258.796 25.658,258.899 25.750 C 259.002 25.842,259.535 26.286,260.084 26.737 C 260.634 27.189,261.158 27.640,261.250 27.741 C 261.342 27.841,262.013 28.409,262.742 29.003 C 263.471 29.597,264.191 30.196,264.343 30.333 C 264.494 30.471,264.885 30.827,265.212 31.125 C 265.538 31.423,265.842 31.667,265.888 31.667 C 265.934 31.667,266.228 31.910,266.543 32.208 C 266.857 32.506,267.476 33.050,267.918 33.417 C 269.133 34.425,270.027 35.217,270.315 35.542 C 270.458 35.702,270.637 35.833,270.714 35.833 C 270.791 35.833,271.056 36.018,271.302 36.245 C 271.549 36.471,271.996 36.883,272.297 37.161 L 272.845 37.667 274.922 37.667 C 276.865 37.667,277.493 37.512,276.733 37.221 C 276.587 37.164,276.305 36.960,276.107 36.767 C 275.910 36.575,275.269 36.004,274.684 35.500 C 274.099 34.996,273.524 34.490,273.406 34.375 C 273.287 34.260,273.137 34.167,273.073 34.167 C 273.008 34.167,272.791 33.998,272.591 33.792 C 272.109 33.294,270.215 31.649,269.761 31.333 C 269.410 31.089,268.568 30.365,267.981 29.802 C 267.819 29.647,267.289 29.195,266.802 28.797 C 265.389 27.642,265.162 27.449,264.522 26.855 C 264.189 26.546,263.605 26.036,263.224 25.722 C 261.913 24.643,261.559 23.297,262.235 21.961 C 263.003 20.444,263.440 20.291,267.417 20.151 C 270.620 20.038,272.179 19.857,273.250 19.473 C 274.000 19.204,275.557 18.442,275.773 18.239 C 275.878 18.141,276.178 17.878,276.440 17.655 C 278.279 16.091,279.171 13.566,279.162 9.947 C 279.152 5.451,277.507 2.269,274.583 1.093 C 274.400 1.019,273.762 0.764,273.167 0.527 L 272.083 0.096 256.708 0.043 L 241.333 -0.010 241.333 1.234 M302.333 1.250 L 302.333 2.500 321.250 2.500 L 340.167 2.500 340.167 1.250 L 340.167 0.000 321.250 0.000 L 302.333 0.000 302.333 1.250 M377.829 0.428 C 377.740 0.663,377.667 0.895,377.667 0.944 C 377.667 1.040,377.328 1.844,376.836 2.917 C 376.322 4.036,375.798 5.220,375.542 5.833 C 375.409 6.154,375.164 6.717,374.999 7.083 C 374.833 7.450,374.565 8.087,374.404 8.500 C 374.243 8.912,373.823 9.870,373.472 10.628 C 373.121 11.386,372.833 12.102,372.833 12.220 C 372.833 12.337,372.767 12.505,372.685 12.592 C 372.603 12.679,372.299 13.313,372.008 14.000 C 371.717 14.688,371.378 15.475,371.255 15.750 C 371.131 16.025,370.904 16.587,370.748 17.000 C 370.470 17.739,370.388 17.923,370.046 18.583 C 369.579 19.484,369.167 20.479,369.167 20.706 C 369.167 20.845,369.054 21.053,368.917 21.167 C 368.779 21.281,368.667 21.468,368.667 21.584 C 368.667 21.699,368.473 22.233,368.237 22.772 C 368.000 23.310,367.730 23.938,367.636 24.167 C 367.542 24.396,367.330 24.883,367.166 25.250 C 366.710 26.266,366.393 26.987,365.918 28.083 C 365.680 28.633,365.376 29.282,365.242 29.526 C 365.109 29.769,365.000 30.052,365.000 30.155 C 365.000 30.259,364.735 30.922,364.410 31.630 C 363.485 33.648,363.388 33.865,363.008 34.750 C 362.811 35.208,362.509 35.883,362.338 36.250 C 361.650 37.718,361.614 37.667,363.327 37.667 C 364.624 37.667,364.858 37.624,364.940 37.375 C 365.066 36.990,365.680 35.553,366.381 34.000 C 366.609 33.496,367.073 32.408,367.412 31.583 C 367.752 30.758,368.129 29.895,368.250 29.666 C 368.371 29.436,368.808 28.420,369.220 27.407 C 369.904 25.726,370.490 24.385,371.328 22.583 C 371.498 22.217,372.588 19.704,373.750 17.000 C 374.912 14.296,376.000 11.783,376.169 11.417 C 376.766 10.118,377.000 9.531,377.000 9.334 C 377.000 9.225,377.150 8.945,377.333 8.712 C 377.517 8.479,377.667 8.193,377.667 8.076 C 377.667 7.091,379.116 5.376,380.226 5.048 C 382.305 4.434,383.135 5.301,385.325 10.375 C 385.513 10.810,385.817 11.504,386.000 11.917 C 386.680 13.448,387.034 14.259,387.161 14.583 C 387.232 14.767,387.443 15.254,387.629 15.667 C 388.509 17.624,388.667 18.013,388.667 18.234 C 388.667 18.365,388.723 18.497,388.792 18.528 C 388.924 18.587,389.580 20.053,389.878 20.958 C 389.976 21.256,390.118 21.500,390.195 21.500 C 390.271 21.500,390.333 21.610,390.333 21.746 C 390.333 21.987,390.471 22.319,391.488 24.531 C 391.769 25.144,392.000 25.686,392.000 25.735 C 392.000 25.813,392.239 26.371,393.077 28.250 C 393.200 28.525,393.465 29.125,393.667 29.583 C 393.868 30.042,394.168 30.717,394.332 31.083 C 394.497 31.450,394.706 31.938,394.798 32.167 C 395.000 32.672,395.738 34.330,396.179 35.268 C 396.355 35.645,396.502 36.057,396.505 36.185 C 396.508 36.312,396.621 36.562,396.755 36.740 C 396.890 36.918,397.000 37.199,397.000 37.365 C 397.000 37.634,397.164 37.667,398.500 37.667 C 400.207 37.667,400.303 37.560,399.677 36.366 C 399.499 36.027,399.229 35.450,399.077 35.083 C 398.817 34.457,398.491 33.701,397.890 32.333 C 397.319 31.036,397.021 30.382,396.686 29.693 C 396.492 29.294,396.333 28.902,396.333 28.821 C 396.333 28.740,396.071 28.113,395.750 27.428 C 395.429 26.743,395.167 26.144,395.167 26.097 C 395.167 26.051,394.917 25.466,394.611 24.798 C 394.305 24.130,393.882 23.171,393.671 22.667 C 393.460 22.162,393.190 21.525,393.071 21.250 C 392.952 20.975,392.695 20.375,392.500 19.917 C 392.305 19.458,392.008 18.783,391.840 18.417 C 391.671 18.050,391.424 17.487,391.291 17.167 C 391.025 16.528,390.525 15.385,390.030 14.288 C 389.855 13.900,389.429 12.908,389.082 12.083 C 388.735 11.258,388.249 10.133,388.000 9.583 C 387.586 8.668,387.009 7.332,386.379 5.833 C 385.961 4.839,385.116 2.910,384.662 1.917 C 384.495 1.550,384.237 0.969,384.088 0.625 L 383.818 0.000 380.905 0.000 L 377.992 0.000 377.829 0.428 M180.333 18.833 L 180.333 20.167 199.167 20.167 L 218.000 20.167 218.000 18.833 L 218.000 17.500 199.167 17.500 L 180.333 17.500 180.333 18.833 M302.333 18.833 L 302.333 20.167 321.250 20.167 L 340.167 20.167 340.167 18.833 L 340.167 17.500 321.250 17.500 L 302.333 17.500 302.333 18.833 M180.333 36.333 L 180.333 37.667 199.167 37.667 L 218.000 37.667 218.000 36.333 L 218.000 35.000 199.167 35.000 L 180.333 35.000 180.333 36.333 M302.333 36.333 L 302.333 37.667 321.250 37.667 L 340.167 37.667 340.167 36.333 L 340.167 35.000 321.250 35.000 L 302.333 35.000 302.333 36.333 " stroke="none" fill="#fcfcfc" fill-rule="evenodd" data-darkreader-inline-fill="" data-darkreader-inline-stroke="" ></path><path id="path1" d="" stroke="none" fill="#000000" fill-rule="evenodd" data-darkreader-inline-fill="" data-darkreader-inline-stroke="" ></path></g></svg>